<svg xmlns="http://www.w3.org/2000/svg" viewBox="0 0 1200 750" width="1200" height="750" role="img"><rect width="1200" height="750" fill="#0e0e0e"/><line x1="100" y1="0" x2="100" y2="750" stroke="#ffffff" stroke-opacity=".05"/><line x1="200" y1="0" x2="200" y2="750" stroke="#ffffff" stroke-opacity=".05"/><line x1="300" y1="0" x2="300" y2="750" stroke="#ffffff" stroke-opacity=".05"/><line x1="400" y1="0" x2="400" y2="750" stroke="#ffffff" stroke-opacity=".05"/><line x1="500" y1="0" x2="500" y2="750" stroke="#ffffff" stroke-opacity=".05"/><line x1="600" y1="0" x2="600" y2="750" stroke="#ffffff" stroke-opacity=".05"/><line x1="700" y1="0" x2="700" y2="750" stroke="#ffffff" stroke-opacity=".05"/><line x1="800" y1="0" x2="800" y2="750" stroke="#ffffff" stroke-opacity=".05"/><line x1="900" y1="0" x2="900" y2="750" stroke="#ffffff" stroke-opacity=".05"/><line x1="1000" y1="0" x2="1000" y2="750" stroke="#ffffff" stroke-opacity=".05"/><line x1="1100" y1="0" x2="1100" y2="750" stroke="#ffffff" stroke-opacity=".05"/><line x1="0" y1="75" x2="1200" y2="75" stroke="#ffffff" stroke-opacity=".05"/><line x1="0" y1="150" x2="1200" y2="150" stroke="#ffffff" stroke-opacity=".05"/><line x1="0" y1="225" x2="1200" y2="225" stroke="#ffffff" stroke-opacity=".05"/><line x1="0" y1="300" x2="1200" y2="300" stroke="#ffffff" stroke-opacity=".05"/><line x1="0" y1="375" x2="1200" y2="375" stroke="#ffffff" stroke-opacity=".05"/><line x1="0" y1="450" x2="1200" y2="450" stroke="#ffffff" stroke-opacity=".05"/><line x1="0" y1="525" x2="1200" y2="525" stroke="#ffffff" stroke-opacity=".05"/><line x1="0" y1="600" x2="1200" y2="600" stroke="#ffffff" stroke-opacity=".05"/><line x1="0" y1="675" x2="1200" y2="675" stroke="#ffffff" stroke-opacity=".05"/><line x1="150" y1="375" x2="1050" y2="375" stroke="#ffffff" stroke-opacity=".2" stroke-width="6"/><circle cx="150" cy="375" r="34" fill="#ff9d4d" fill-opacity="0.95"/><rect x="104" y="457" width="92" height="20" rx="8" fill="#ffffff" fill-opacity=".16"/><circle cx="330" cy="375" r="34" fill="#ff9d4d" fill-opacity="0.95"/><rect x="284" y="457" width="92" height="20" rx="8" fill="#ffffff" fill-opacity=".16"/><circle cx="510" cy="375" r="34" fill="#ff9d4d" fill-opacity="0.95"/><rect x="464" y="457" width="92" height="20" rx="8" fill="#ffffff" fill-opacity=".16"/><circle cx="690" cy="375" r="34" fill="#ff9d4d" fill-opacity="0.95"/><rect x="644" y="457" width="92" height="20" rx="8" fill="#ffffff" fill-opacity=".16"/><circle cx="870" cy="375" r="34" fill="#ff9d4d" fill-opacity="0.95"/><rect x="824" y="457" width="92" height="20" rx="8" fill="#ffffff" fill-opacity=".16"/><circle cx="1050" cy="375" r="46" fill="#ff9d4d" fill-opacity="0.35"/><rect x="1004" y="457" width="92" height="20" rx="8" fill="#ffffff" fill-opacity=".16"/></svg>