<svg xmlns="http://www.w3.org/2000/svg" viewBox="0 0 1200 750" width="1200" height="750" role="img"><rect width="1200" height="750" fill="#0e0e0e"/><line x1="100" y1="0" x2="100" y2="750" stroke="#ffffff" stroke-opacity=".05"/><line x1="200" y1="0" x2="200" y2="750" stroke="#ffffff" stroke-opacity=".05"/><line x1="300" y1="0" x2="300" y2="750" stroke="#ffffff" stroke-opacity=".05"/><line x1="400" y1="0" x2="400" y2="750" stroke="#ffffff" stroke-opacity=".05"/><line x1="500" y1="0" x2="500" y2="750" stroke="#ffffff" stroke-opacity=".05"/><line x1="600" y1="0" x2="600" y2="750" stroke="#ffffff" stroke-opacity=".05"/><line x1="700" y1="0" x2="700" y2="750" stroke="#ffffff" stroke-opacity=".05"/><line x1="800" y1="0" x2="800" y2="750" stroke="#ffffff" stroke-opacity=".05"/><line x1="900" y1="0" x2="900" y2="750" stroke="#ffffff" stroke-opacity=".05"/><line x1="1000" y1="0" x2="1000" y2="750" stroke="#ffffff" stroke-opacity=".05"/><line x1="1100" y1="0" x2="1100" y2="750" stroke="#ffffff" stroke-opacity=".05"/><line x1="0" y1="75" x2="1200" y2="75" stroke="#ffffff" stroke-opacity=".05"/><line x1="0" y1="150" x2="1200" y2="150" stroke="#ffffff" stroke-opacity=".05"/><line x1="0" y1="225" x2="1200" y2="225" stroke="#ffffff" stroke-opacity=".05"/><line x1="0" y1="300" x2="1200" y2="300" stroke="#ffffff" stroke-opacity=".05"/><line x1="0" y1="375" x2="1200" y2="375" stroke="#ffffff" stroke-opacity=".05"/><line x1="0" y1="450" x2="1200" y2="450" stroke="#ffffff" stroke-opacity=".05"/><line x1="0" y1="525" x2="1200" y2="525" stroke="#ffffff" stroke-opacity=".05"/><line x1="0" y1="600" x2="1200" y2="600" stroke="#ffffff" stroke-opacity=".05"/><line x1="0" y1="675" x2="1200" y2="675" stroke="#ffffff" stroke-opacity=".05"/><circle cx="249" cy="499" r="26" fill="#67d4ee" fill-opacity="0.95"/><circle cx="392" cy="368" r="13" fill="#ffffff" fill-opacity="0.15"/><circle cx="892" cy="360" r="13" fill="#ffffff" fill-opacity="0.15"/><circle cx="438" cy="267" r="13" fill="#ffffff" fill-opacity="0.15"/><circle cx="814" cy="460" r="13" fill="#ffffff" fill-opacity="0.15"/><circle cx="450" cy="468" r="26" fill="#67d4ee" fill-opacity="0.95"/><circle cx="840" cy="433" r="13" fill="#ffffff" fill-opacity="0.15"/><circle cx="543" cy="290" r="13" fill="#ffffff" fill-opacity="0.15"/><circle cx="409" cy="344" r="13" fill="#ffffff" fill-opacity="0.15"/><circle cx="1031" cy="391" r="13" fill="#ffffff" fill-opacity="0.15"/><circle cx="506" cy="363" r="26" fill="#67d4ee" fill-opacity="0.95"/><circle cx="509" cy="494" r="13" fill="#ffffff" fill-opacity="0.15"/><circle cx="293" cy="312" r="13" fill="#ffffff" fill-opacity="0.15"/><circle cx="704" cy="370" r="13" fill="#ffffff" fill-opacity="0.15"/><circle cx="308" cy="235" r="13" fill="#ffffff" fill-opacity="0.15"/><circle cx="807" cy="265" r="26" fill="#67d4ee" fill-opacity="0.95"/><circle cx="265" cy="402" r="13" fill="#ffffff" fill-opacity="0.15"/><circle cx="168" cy="272" r="13" fill="#ffffff" fill-opacity="0.15"/><circle cx="420" cy="334" r="13" fill="#ffffff" fill-opacity="0.15"/><circle cx="1014" cy="425" r="13" fill="#ffffff" fill-opacity="0.15"/><circle cx="553" cy="454" r="26" fill="#67d4ee" fill-opacity="0.95"/><circle cx="1057" cy="278" r="13" fill="#ffffff" fill-opacity="0.15"/><circle cx="1033" cy="287" r="13" fill="#ffffff" fill-opacity="0.15"/><circle cx="732" cy="416" r="13" fill="#ffffff" fill-opacity="0.15"/><circle cx="325" cy="278" r="13" fill="#ffffff" fill-opacity="0.15"/><circle cx="904" cy="479" r="26" fill="#67d4ee" fill-opacity="0.95"/><circle cx="666" cy="329" r="13" fill="#ffffff" fill-opacity="0.15"/><circle cx="417" cy="461" r="13" fill="#ffffff" fill-opacity="0.15"/><circle cx="779" cy="341" r="13" fill="#ffffff" fill-opacity="0.15"/><circle cx="636" cy="374" r="13" fill="#ffffff" fill-opacity="0.15"/><circle cx="652" cy="360" r="26" fill="#67d4ee" fill-opacity="0.95"/><circle cx="244" cy="292" r="13" fill="#ffffff" fill-opacity="0.15"/><circle cx="977" cy="275" r="13" fill="#ffffff" fill-opacity="0.15"/><circle cx="425" cy="373" r="13" fill="#ffffff" fill-opacity="0.15"/><circle cx="261" cy="244" r="13" fill="#ffffff" fill-opacity="0.15"/><circle cx="305" cy="440" r="26" fill="#67d4ee" fill-opacity="0.95"/></svg>