<svg xmlns="http://www.w3.org/2000/svg" viewBox="0 0 1200 750" width="1200" height="750" role="img"><rect width="1200" height="750" fill="#0e0e0e"/><line x1="100" y1="0" x2="100" y2="750" stroke="#ffffff" stroke-opacity=".05"/><line x1="200" y1="0" x2="200" y2="750" stroke="#ffffff" stroke-opacity=".05"/><line x1="300" y1="0" x2="300" y2="750" stroke="#ffffff" stroke-opacity=".05"/><line x1="400" y1="0" x2="400" y2="750" stroke="#ffffff" stroke-opacity=".05"/><line x1="500" y1="0" x2="500" y2="750" stroke="#ffffff" stroke-opacity=".05"/><line x1="600" y1="0" x2="600" y2="750" stroke="#ffffff" stroke-opacity=".05"/><line x1="700" y1="0" x2="700" y2="750" stroke="#ffffff" stroke-opacity=".05"/><line x1="800" y1="0" x2="800" y2="750" stroke="#ffffff" stroke-opacity=".05"/><line x1="900" y1="0" x2="900" y2="750" stroke="#ffffff" stroke-opacity=".05"/><line x1="1000" y1="0" x2="1000" y2="750" stroke="#ffffff" stroke-opacity=".05"/><line x1="1100" y1="0" x2="1100" y2="750" stroke="#ffffff" stroke-opacity=".05"/><line x1="0" y1="75" x2="1200" y2="75" stroke="#ffffff" stroke-opacity=".05"/><line x1="0" y1="150" x2="1200" y2="150" stroke="#ffffff" stroke-opacity=".05"/><line x1="0" y1="225" x2="1200" y2="225" stroke="#ffffff" stroke-opacity=".05"/><line x1="0" y1="300" x2="1200" y2="300" stroke="#ffffff" stroke-opacity=".05"/><line x1="0" y1="375" x2="1200" y2="375" stroke="#ffffff" stroke-opacity=".05"/><line x1="0" y1="450" x2="1200" y2="450" stroke="#ffffff" stroke-opacity=".05"/><line x1="0" y1="525" x2="1200" y2="525" stroke="#ffffff" stroke-opacity=".05"/><line x1="0" y1="600" x2="1200" y2="600" stroke="#ffffff" stroke-opacity=".05"/><line x1="0" y1="675" x2="1200" y2="675" stroke="#ffffff" stroke-opacity=".05"/><path d="M193 225h14M200 218v14" stroke="#ffffff" stroke-opacity=".22"/><path d="M593 375h14M600 368v14" stroke="#ffffff" stroke-opacity=".22"/><path d="M993 150h14M1000 143v14" stroke="#ffffff" stroke-opacity=".22"/><path d="M393 600h14M400 593v14" stroke="#ffffff" stroke-opacity=".22"/><rect x="150" y="363.5" width="72" height="236.50000000000003" rx="4" fill="#9a8cff" fill-opacity="0.3"/><rect x="280" y="256" width="72" height="344" rx="4" fill="#9a8cff" fill-opacity="0.3"/><rect x="410" y="449.5" width="72" height="150.5" rx="4" fill="#9a8cff" fill-opacity="0.95"/><rect x="540" y="320.5" width="72" height="279.5" rx="4" fill="#9a8cff" fill-opacity="0.3"/><rect x="670" y="406.5" width="72" height="193.5" rx="4" fill="#9a8cff" fill-opacity="0.95"/><rect x="800" y="213" width="72" height="387" rx="4" fill="#9a8cff" fill-opacity="0.3"/><rect x="930" y="385" width="72" height="215" rx="4" fill="#9a8cff" fill-opacity="0.3"/><rect x="1060" y="299" width="72" height="301" rx="4" fill="#9a8cff" fill-opacity="0.3"/><line x1="110" y1="480" x2="1090" y2="480" stroke="#9a8cff" stroke-dasharray="8 8" stroke-opacity=".8"/><line x1="110" y1="600" x2="1090" y2="600" stroke="#ffffff" stroke-opacity=".25"/></svg>
