<svg xmlns="http://www.w3.org/2000/svg" viewBox="0 0 1200 750" width="1200" height="750" role="img"><rect width="1200" height="750" fill="#0e0e0e"/><line x1="100" y1="0" x2="100" y2="750" stroke="#ffffff" stroke-opacity=".05"/><line x1="200" y1="0" x2="200" y2="750" stroke="#ffffff" stroke-opacity=".05"/><line x1="300" y1="0" x2="300" y2="750" stroke="#ffffff" stroke-opacity=".05"/><line x1="400" y1="0" x2="400" y2="750" stroke="#ffffff" stroke-opacity=".05"/><line x1="500" y1="0" x2="500" y2="750" stroke="#ffffff" stroke-opacity=".05"/><line x1="600" y1="0" x2="600" y2="750" stroke="#ffffff" stroke-opacity=".05"/><line x1="700" y1="0" x2="700" y2="750" stroke="#ffffff" stroke-opacity=".05"/><line x1="800" y1="0" x2="800" y2="750" stroke="#ffffff" stroke-opacity=".05"/><line x1="900" y1="0" x2="900" y2="750" stroke="#ffffff" stroke-opacity=".05"/><line x1="1000" y1="0" x2="1000" y2="750" stroke="#ffffff" stroke-opacity=".05"/><line x1="1100" y1="0" x2="1100" y2="750" stroke="#ffffff" stroke-opacity=".05"/><line x1="0" y1="75" x2="1200" y2="75" stroke="#ffffff" stroke-opacity=".05"/><line x1="0" y1="150" x2="1200" y2="150" stroke="#ffffff" stroke-opacity=".05"/><line x1="0" y1="225" x2="1200" y2="225" stroke="#ffffff" stroke-opacity=".05"/><line x1="0" y1="300" x2="1200" y2="300" stroke="#ffffff" stroke-opacity=".05"/><line x1="0" y1="375" x2="1200" y2="375" stroke="#ffffff" stroke-opacity=".05"/><line x1="0" y1="450" x2="1200" y2="450" stroke="#ffffff" stroke-opacity=".05"/><line x1="0" y1="525" x2="1200" y2="525" stroke="#ffffff" stroke-opacity=".05"/><line x1="0" y1="600" x2="1200" y2="600" stroke="#ffffff" stroke-opacity=".05"/><line x1="0" y1="675" x2="1200" y2="675" stroke="#ffffff" stroke-opacity=".05"/><rect x="300" y="204" width="540" height="342" rx="10" fill="#ffffff" fill-opacity=".04" stroke="#ffffff" stroke-opacity=".12" stroke-width="2"/><rect x="360" y="222" width="540" height="306" rx="10" fill="#141414" stroke="#ffffff" stroke-opacity=".24" stroke-width="2"/><rect x="410" y="221" width="400" height="18" rx="6" fill="#ffffff" fill-opacity=".17"/><rect x="410" y="257" width="470" height="18" rx="6" fill="#ffffff" fill-opacity=".17"/><rect x="410" y="287" width="436" height="30" rx="6" fill="#f2545b" fill-opacity=".22"/><line x1="410" y1="302" x2="846" y2="302" stroke="#f2545b" stroke-opacity=".95" stroke-width="5"/><path d="M382 285v34" stroke="#f2545b" stroke-opacity=".95" stroke-width="7"/><rect x="410" y="329" width="482" height="18" rx="6" fill="#ffffff" fill-opacity=".17"/><rect x="410" y="365" width="418" height="18" rx="6" fill="#ffffff" fill-opacity=".17"/><rect x="410" y="395" width="360" height="30" rx="6" fill="#f2545b" fill-opacity=".22"/><line x1="410" y1="410" x2="770" y2="410" stroke="#f2545b" stroke-opacity=".95" stroke-width="5"/><path d="M382 393v34" stroke="#f2545b" stroke-opacity=".95" stroke-width="7"/><rect x="410" y="437" width="462" height="18" rx="6" fill="#ffffff" fill-opacity=".17"/><rect x="410" y="467" width="428" height="30" rx="6" fill="#f2545b" fill-opacity=".22"/><line x1="410" y1="482" x2="838" y2="482" stroke="#f2545b" stroke-opacity=".95" stroke-width="5"/><path d="M382 465v34" stroke="#f2545b" stroke-opacity=".95" stroke-width="7"/><rect x="410" y="509" width="450" height="18" rx="6" fill="#ffffff" fill-opacity=".17"/></svg>