<svg xmlns="http://www.w3.org/2000/svg" viewBox="0 0 1200 750" width="1200" height="750" role="img"><rect width="1200" height="750" fill="#0e0e0e"/><line x1="100" y1="0" x2="100" y2="750" stroke="#ffffff" stroke-opacity=".05"/><line x1="200" y1="0" x2="200" y2="750" stroke="#ffffff" stroke-opacity=".05"/><line x1="300" y1="0" x2="300" y2="750" stroke="#ffffff" stroke-opacity=".05"/><line x1="400" y1="0" x2="400" y2="750" stroke="#ffffff" stroke-opacity=".05"/><line x1="500" y1="0" x2="500" y2="750" stroke="#ffffff" stroke-opacity=".05"/><line x1="600" y1="0" x2="600" y2="750" stroke="#ffffff" stroke-opacity=".05"/><line x1="700" y1="0" x2="700" y2="750" stroke="#ffffff" stroke-opacity=".05"/><line x1="800" y1="0" x2="800" y2="750" stroke="#ffffff" stroke-opacity=".05"/><line x1="900" y1="0" x2="900" y2="750" stroke="#ffffff" stroke-opacity=".05"/><line x1="1000" y1="0" x2="1000" y2="750" stroke="#ffffff" stroke-opacity=".05"/><line x1="1100" y1="0" x2="1100" y2="750" stroke="#ffffff" stroke-opacity=".05"/><line x1="0" y1="75" x2="1200" y2="75" stroke="#ffffff" stroke-opacity=".05"/><line x1="0" y1="150" x2="1200" y2="150" stroke="#ffffff" stroke-opacity=".05"/><line x1="0" y1="225" x2="1200" y2="225" stroke="#ffffff" stroke-opacity=".05"/><line x1="0" y1="300" x2="1200" y2="300" stroke="#ffffff" stroke-opacity=".05"/><line x1="0" y1="375" x2="1200" y2="375" stroke="#ffffff" stroke-opacity=".05"/><line x1="0" y1="450" x2="1200" y2="450" stroke="#ffffff" stroke-opacity=".05"/><line x1="0" y1="525" x2="1200" y2="525" stroke="#ffffff" stroke-opacity=".05"/><line x1="0" y1="600" x2="1200" y2="600" stroke="#ffffff" stroke-opacity=".05"/><line x1="0" y1="675" x2="1200" y2="675" stroke="#ffffff" stroke-opacity=".05"/><rect x="102" y="230" width="180" height="80" rx="10" fill="#ffc75a" fill-opacity="0.15"/><rect x="306" y="230" width="180" height="80" rx="10" fill="#ffc75a" fill-opacity="0.15"/><rect x="510" y="230" width="180" height="80" rx="10" fill="#ffc75a" fill-opacity="0.95"/><rect x="714" y="230" width="180" height="80" rx="10" fill="#ffc75a" fill-opacity="0.15"/><rect x="918" y="230" width="180" height="80" rx="10" fill="#ffc75a" fill-opacity="0.15"/><rect x="102" y="334" width="180" height="80" rx="10" fill="#ffc75a" fill-opacity="0.15"/><rect x="306" y="334" width="180" height="80" rx="10" fill="#ffc75a" fill-opacity="0.95"/><rect x="510" y="334" width="180" height="80" rx="10" fill="#ffc75a" fill-opacity="0.15"/><rect x="714" y="334" width="180" height="80" rx="10" fill="#ffc75a" fill-opacity="0.15"/><rect x="918" y="334" width="180" height="80" rx="10" fill="#ffc75a" fill-opacity="0.15"/><rect x="102" y="438" width="180" height="80" rx="10" fill="#ffc75a" fill-opacity="0.15"/><rect x="306" y="438" width="180" height="80" rx="10" fill="#ffc75a" fill-opacity="0.95"/><rect x="510" y="438" width="180" height="80" rx="10" fill="#ffc75a" fill-opacity="0.15"/><rect x="714" y="438" width="180" height="80" rx="10" fill="#ffc75a" fill-opacity="0.15"/><rect x="918" y="438" width="180" height="80" rx="10" fill="#ffc75a" fill-opacity="0.15"/></svg>